<svg xmlns="http://www.w3.org/2000/svg" width="840" height="200" viewBox="0 0 840 200" role="img" aria-label="lucide-brands: The brand icons lucide removed in 1.1, back as drop-in React, Vue and vanilla JS icons, plus a codemod that migrates a project in one command."><style>.icon{opacity:0;animation:in .5s ease-out forwards}@keyframes in{from{opacity:0}to{opacity:1}}@media (prefers-reduced-motion:reduce){.icon{opacity:1;animation:none}}</style><rect x=".5" y=".5" width="839" height="199" rx="14" fill="#0A0A0A" stroke="#262626"/><rect x=".5" y=".5" width="4" height="199" rx="2" fill="#0047FF"/><text x="24" y="30" font-family="ui-monospace, SFMono-Regular, Menlo, Consolas, monospace" font-size="11" letter-spacing="2" fill="#0047FF">OPEN SOURCE · ON NPM</text><text x="24" y="62" font-family="system-ui, -apple-system, 'Segoe UI', Roboto, Helvetica, Arial, sans-serif" font-size="26" font-weight="700" fill="#F5F3EE">lucide-brands</text><g transform="translate(237 45)"><path d="M8 .25a.75.75 0 0 1 .673.418l1.882 3.815 4.21.612a.75.75 0 0 1 .416 1.279l-3.046 2.97.719 4.192a.751.751 0 0 1-1.088.791L8 12.347l-3.766 1.98a.75.75 0 0 1-1.088-.79l.72-4.194L.818 6.374a.75.75 0 0 1 .416-1.28l4.21-.611L7.327.668A.75.75 0 0 1 8 .25Z" fill="#8A8A8A"/><text x="22" y="13" font-family="ui-monospace, SFMono-Regular, Menlo, Consolas, monospace" font-size="14" fill="#F5F3EE">1</text></g><text x="24" y="90" font-family="system-ui, -apple-system, 'Segoe UI', Roboto, Helvetica, Arial, sans-serif" font-size="14" fill="#8A8A8A">The brand icons lucide removed in 1.1, back as drop-in React, Vue and</text><text x="24" y="110" font-family="system-ui, -apple-system, 'Segoe UI', Roboto, Helvetica, Arial, sans-serif" font-size="14" fill="#8A8A8A">vanilla JS icons, plus a codemod that migrates a project in one</text><text x="24" y="130" font-family="system-ui, -apple-system, 'Segoe UI', Roboto, Helvetica, Arial, sans-serif" font-size="14" fill="#8A8A8A">command.</text><circle cx="30" cy="171" r="6" fill="#3178C6"/><text x="42" y="175" font-family="system-ui, -apple-system, 'Segoe UI', Roboto, Helvetica, Arial, sans-serif" font-size="13" fill="#F5F3EE">TypeScript</text><rect x="125" y="160" width="59" height="22" rx="11" fill="#161616" stroke="#262626"/><text x="154.5" y="175" text-anchor="middle" font-family="ui-monospace, SFMono-Regular, Menlo, Consolas, monospace" font-size="11.5" fill="#8A8A8A">v1.2.0</text><rect x="192" y="160" width="39" height="22" rx="11" fill="#161616" stroke="#262626"/><text x="211.5" y="175" text-anchor="middle" font-family="ui-monospace, SFMono-Regular, Menlo, Consolas, monospace" font-size="11.5" fill="#8A8A8A">npm</text><rect x="239" y="160" width="53" height="22" rx="11" fill="#161616" stroke="#262626"/><text x="265.5" y="175" text-anchor="middle" font-family="ui-monospace, SFMono-Regular, Menlo, Consolas, monospace" font-size="11.5" fill="#8A8A8A">React</text><rect x="300" y="160" width="39" height="22" rx="11" fill="#161616" stroke="#262626"/><text x="319.5" y="175" text-anchor="middle" font-family="ui-monospace, SFMono-Regular, Menlo, Consolas, monospace" font-size="11.5" fill="#8A8A8A">Vue</text><rect x="347" y="160" width="66" height="22" rx="11" fill="#161616" stroke="#262626"/><text x="380" y="175" text-anchor="middle" font-family="ui-monospace, SFMono-Regular, Menlo, Consolas, monospace" font-size="11.5" fill="#8A8A8A">Codemod</text><g class="icon" style="animation-delay:0.00s" transform="translate(574 52) scale(1.4166666666666667)" fill="none" stroke="#0047FF" stroke-width="2" stroke-linecap="round" stroke-linejoin="round"><path d="M15 22v-4a4.8 4.8 0 0 0-1-3.5c3 0 6-2 6-5.5.08-1.25-.27-2.48-1-3.5.28-1.15.28-2.35 0-3.5 0 0-1 0-3 1.5-2.64-.5-5.36-.5-8 0C6 2 5 2 5 2c-.3 1.15-.3 2.35 0 3.5A5.403 5.403 0 0 0 4 9c0 3.5 3 5.5 6 5.5-.39.49-.68 1.05-.85 1.65-.17.6-.22 1.23-.15 1.85v4" />
  <path d="M9 18c-4.51 2-5-2-7-2" /></g><g class="icon" style="animation-delay:0.12s" transform="translate(626 52) scale(1.4166666666666667)" fill="none" stroke="#F5F3EE" stroke-width="2" stroke-linecap="round" stroke-linejoin="round"><path d="M16 8a6 6 0 0 1 6 6v7h-4v-7a2 2 0 0 0-2-2 2 2 0 0 0-2 2v7h-4v-7a6 6 0 0 1 6-6z" />
  <rect width="4" height="12" x="2" y="9" />
  <circle cx="4" cy="4" r="2" /></g><g class="icon" style="animation-delay:0.24s" transform="translate(678 52) scale(1.4166666666666667)" fill="none" stroke="#F5F3EE" stroke-width="2" stroke-linecap="round" stroke-linejoin="round"><path d="M2.5 17a24.12 24.12 0 0 1 0-10 2 2 0 0 1 1.4-1.4 49.56 49.56 0 0 1 16.2 0A2 2 0 0 1 21.5 7a24.12 24.12 0 0 1 0 10 2 2 0 0 1-1.4 1.4 49.55 49.55 0 0 1-16.2 0A2 2 0 0 1 2.5 17" />
  <path d="m10 15 5-3-5-3z" /></g><g class="icon" style="animation-delay:0.36s" transform="translate(730 52) scale(1.4166666666666667)" fill="none" stroke="#0047FF" stroke-width="2" stroke-linecap="round" stroke-linejoin="round"><rect width="20" height="20" x="2" y="2" rx="5" ry="5" />
  <path d="M16 11.37A4 4 0 1 1 12.63 8 4 4 0 0 1 16 11.37z" />
  <line x1="17.5" x2="17.51" y1="6.5" y2="6.5" /></g><g class="icon" style="animation-delay:0.48s" transform="translate(782 52) scale(1.4166666666666667)" fill="none" stroke="#F5F3EE" stroke-width="2" stroke-linecap="round" stroke-linejoin="round"><path d="M5 5.5A3.5 3.5 0 0 1 8.5 2H12v7H8.5A3.5 3.5 0 0 1 5 5.5z" />
  <path d="M12 2h3.5a3.5 3.5 0 1 1 0 7H12V2z" />
  <path d="M12 12.5a3.5 3.5 0 1 1 7 0 3.5 3.5 0 1 1-7 0z" />
  <path d="M5 19.5A3.5 3.5 0 0 1 8.5 16H12v3.5a3.5 3.5 0 1 1-7 0z" />
  <path d="M5 12.5A3.5 3.5 0 0 1 8.5 9H12v7H8.5A3.5 3.5 0 0 1 5 12.5z" /></g><g class="icon" style="animation-delay:0.60s" transform="translate(574 104) scale(1.4166666666666667)" fill="none" stroke="#F5F3EE" stroke-width="2" stroke-linecap="round" stroke-linejoin="round"><rect width="3" height="8" x="13" y="2" rx="1.5" />
  <path d="M19 8.5V10h1.5A1.5 1.5 0 1 0 19 8.5" />
  <rect width="3" height="8" x="8" y="14" rx="1.5" />
  <path d="M5 15.5V14H3.5A1.5 1.5 0 1 0 5 15.5" />
  <rect width="8" height="3" x="14" y="13" rx="1.5" />
  <path d="M15.5 19H14v1.5a1.5 1.5 0 1 0 1.5-1.5" />
  <rect width="8" height="3" x="2" y="8" rx="1.5" />
  <path d="M8.5 5H10V3.5A1.5 1.5 0 1 0 8.5 5" /></g><g class="icon" style="animation-delay:0.72s" transform="translate(626 104) scale(1.4166666666666667)" fill="none" stroke="#0047FF" stroke-width="2" stroke-linecap="round" stroke-linejoin="round"><path d="M22 4s-.7 2.1-2 3.4c1.6 10-9.4 17.3-18 11.6 2.2.1 4.4-.6 6-2C3 15.5.5 9.6 3 5c2.2 2.6 5.6 4.1 9 4-.9-4.2 4-6.6 7-3.8 1.1 0 3-1.2 3-1.2z" /></g><g class="icon" style="animation-delay:0.84s" transform="translate(678 104) scale(1.4166666666666667)" fill="none" stroke="#F5F3EE" stroke-width="2" stroke-linecap="round" stroke-linejoin="round"><path d="m22 13.29-3.33-10a.42.42 0 0 0-.14-.18.38.38 0 0 0-.22-.11.39.39 0 0 0-.23.07.42.42 0 0 0-.14.18l-2.26 6.67H8.32L6.1 3.26a.42.42 0 0 0-.1-.18.38.38 0 0 0-.26-.08.39.39 0 0 0-.23.07.42.42 0 0 0-.14.18L2 13.29a.74.74 0 0 0 .27.83L12 21l9.69-6.88a.71.71 0 0 0 .31-.83Z" /></g><g class="icon" style="animation-delay:0.96s" transform="translate(730 104) scale(1.4166666666666667)" fill="none" stroke="#F5F3EE" stroke-width="2" stroke-linecap="round" stroke-linejoin="round"><path d="M21 2H3v16h5v4l4-4h5l4-4V2zm-10 9V7m5 4V7" /></g><g class="icon" style="animation-delay:1.08s" transform="translate(782 104) scale(1.4166666666666667)" fill="none" stroke="#0047FF" stroke-width="2" stroke-linecap="round" stroke-linejoin="round"><circle cx="12" cy="12" r="10" />
  <path d="M19.13 5.09C15.22 9.14 10 10.44 2.25 10.94" />
  <path d="M21.75 12.84c-6.62-1.41-12.14 1-16.38 6.32" />
  <path d="M8.56 2.75c4.37 6 6 9.42 8 17.72" /></g></svg>
